<?xml version="1.0" standalone="no"?>
<!DOCTYPE svg PUBLIC "-//W3C//DTD SVG 20010904//EN"
 "http://www.w3.org/TR/2001/REC-SVG-20010904/DTD/svg10.dtd">
<svg version="1.0" xmlns="http://www.w3.org/2000/svg"
 width="520.000000pt" height="337.000000pt" viewBox="0 0 520.000000 337.000000"
 preserveAspectRatio="xMidYMid meet">

<g transform="translate(0.000000,337.000000) scale(0.100000,-0.100000)"
fill="#ffffff" stroke="none">
<path d="M718 3276 c-15 -11 -15 -13 2 -24 14 -8 21 -8 29 2 17 20 -9 38 -31
22z"/>
<path d="M491 3185 c-14 -40 -67 -85 -102 -86 -20 0 -17 -4 17 -19 43 -19 94
-75 94 -103 0 -26 17 -20 24 7 9 38 53 84 93 97 l36 12 -37 12 c-48 17 -73 40
-88 81 -7 19 -15 34 -18 34 -3 0 -12 -16 -19 -35z"/>
<path d="M3133 3033 c4 -3 44 -30 89 -59 l82 -52 39 19 c64 33 178 57 306 65
l121 7 2 -198 3 -198 182 -118 183 -118 2 312 3 312 122 -3 c324 -7 431 -88
659 -499 73 -132 104 -169 104 -125 0 9 -26 162 -57 340 l-58 322 -894 0
c-492 0 -891 -3 -888 -7z"/>
<path d="M819 2969 l-25 -26 26 -29 25 -29 25 30 25 30 -25 25 -25 25 -26 -26z"/>
<path d="M2976 2893 c-5 -19 -82 -460 -88 -503 -7 -60 31 -15 119 138 51 90
109 187 129 214 19 28 32 53 27 57 -18 15 -170 111 -175 111 -4 0 -9 -8 -12
-17z"/>
<path d="M167 2674 c-14 -15 7 -24 52 -24 26 0 76 -3 110 -6 l61 -7 0 -287 0
-288 118 -73 c64 -40 150 -94 190 -120 39 -27 72 -45 72 -41 0 4 0 186 0 405
0 313 2 398 12 402 7 3 60 8 118 13 61 4 104 11 103 17 -3 11 -825 20 -836 9z"/>
<path d="M3770 1621 l0 -779 -22 -6 c-13 -3 -54 -6 -93 -6 -91 0 -175 -11
-175 -21 0 -5 223 -9 495 -9 272 0 495 4 495 9 0 11 -86 21 -186 21 -45 0 -96
3 -113 6 l-31 6 -2 666 -3 666 -175 113 c-96 62 -178 113 -182 113 -5 0 -8
-350 -8 -779z"/>
<path d="M2367 2344 c-206 -36 -508 -126 -653 -193 -234 -110 -445 -319 -550
-546 -36 -77 -84 -234 -84 -269 1 -16 42 -47 187 -138 103 -65 188 -116 191
-114 2 2 -8 51 -22 108 -110 451 -7 775 294 921 116 56 198 77 310 77 178 0
305 -55 547 -239 167 -126 202 -148 189 -116 -10 26 -298 490 -315 506 -14 15
-24 15 -94 3z"/>
<path d="M390 1152 c0 -629 -2 -700 -16 -706 -9 -3 -39 -6 -68 -6 -72 0 -146
-11 -146 -21 0 -5 191 -9 425 -9 234 0 425 4 425 9 0 10 -74 21 -147 21 -103
0 -93 -60 -93 597 0 317 -1 577 -2 578 -3 3 -347 218 -365 229 -10 6 -13 -135
-13 -692z"/>
<path d="M2745 1356 c-197 -79 -361 -148 -363 -155 -5 -16 3 -14 108 19 52 16
98 26 102 22 3 -4 81 -194 172 -422 187 -470 179 -421 82 -504 -71 -61 -187
-127 -295 -168 -80 -30 -95 -32 -211 -32 -138 -1 -190 12 -299 76 -138 81
-312 291 -421 508 l-48 95 -240 153 c-132 83 -248 155 -257 158 -15 6 -16 1
-10 -52 45 -392 268 -726 595 -893 184 -95 332 -126 547 -118 156 6 236 23
396 87 189 76 427 231 589 382 l56 53 -162 405 c-100 250 -159 409 -154 416 5
7 47 29 93 49 47 21 85 44 85 52 0 7 -1 13 -2 12 -2 0 -165 -65 -363 -143z"/>
</g>
</svg>
